<svg width="61" height="24" fill="none" xmlns="http://www.w3.org/2000/svg"><rect width="61" height="24" rx="12" fill="#F2AA18"/><mask id="a" maskUnits="userSpaceOnUse" x="0" y="0" width="61" height="24"><path fill="#fff" d="M0 0h61v24H0z"/></mask><g mask="url(#a)" fill-rule="evenodd" clip-rule="evenodd"><path d="M20.076 3.325H17.87v.02c.172.11.269.251.292.426a3 3 0 01.02.539V6.9c.009.188.003.368-.02.542a.596.596 0 01-.292.429v.02h2.167c.26.006.494-.008.705-.044a1.35 1.35 0 00.61-.288c.174-.142.306-.303.394-.483.087-.18.131-.378.131-.593a1.171 1.171 0 00-.293-.788 1.225 1.225 0 00-.77-.4c.226-.067.41-.174.558-.318a.787.787 0 00.225-.563.915.915 0 00-.134-.482 1.343 1.343 0 00-.361-.378 1.093 1.093 0 00-.484-.2 3.302 3.302 0 00-.543-.029zm-.529 1.742V4.004a.787.787 0 01.107-.03.516.516 0 01.108-.011c.159.005.276.06.353.166a.616.616 0 01.113.369.653.653 0 01-.137.41c-.091.119-.225.18-.404.188a.399.399 0 01-.07-.01 1.63 1.63 0 01-.07-.019zm0 2.09V5.698h.177c.281 0 .488.06.622.184.135.124.201.318.2.58a.902.902 0 01-.156.54c-.107.151-.279.231-.517.238a.697.697 0 01-.172-.015.496.496 0 01-.154-.068V5.074v2.083zm3.935-.647h1.464l.245.675a.547.547 0 01.059.264.377.377 0 01-.088.256.868.868 0 01-.216.167v.02h2.233v-.02c-.2-.174-.337-.325-.41-.458a3.67 3.67 0 01-.226-.514l-1.396-3.574h-1.813v.02c.076.045.142.1.196.165a.374.374 0 01.084.238.984.984 0 01-.064.28c-.04.109-.072.2-.098.276l-1.02 2.768c-.061.174-.129.32-.2.442-.07.12-.174.24-.31.357v.02h1.516v-.02c-.07-.05-.13-.103-.183-.16a.344.344 0 01-.084-.228.961.961 0 01.047-.253 4.91 4.91 0 01.086-.248l.178-.472zm.719-2.017l.51 1.368h-1.006l.488-1.368h.008zm5.624-1.168H27.62v.02c.172.11.268.251.292.426.023.174.028.354.02.539V6.9c.008.188.003.368-.02.542a.6.6 0 01-.292.429v.02h2.166c.26.006.496-.008.705-.044.212-.036.415-.132.611-.288a1.335 1.335 0 00.524-1.076 1.173 1.173 0 00-.293-.788 1.222 1.222 0 00-.77-.4c.227-.067.412-.174.558-.318a.784.784 0 00.225-.563.91.91 0 00-.134-.482 1.339 1.339 0 00-.36-.378 1.094 1.094 0 00-.484-.2 3.299 3.299 0 00-.544-.029zm-.519 1.742V4.004a.827.827 0 01.11-.03.51.51 0 01.106-.011c.158.005.276.06.353.166a.62.62 0 01.113.369.645.645 0 01-.137.41c-.09.119-.225.18-.403.188a.405.405 0 01-.071-.01 3.372 3.372 0 01-.07-.019zm0 2.09V5.698h.179c.28 0 .488.06.621.184.134.124.201.318.2.58a.902.902 0 01-.156.54c-.106.151-.28.231-.517.238a.518.518 0 01-.326-.083V5.074v2.083zm5.2-.277V5.824l1.32-2.478v-.021h-1.33v.02c.079.041.136.09.174.145a.392.392 0 01.057.224.762.762 0 01-.06.247 2.208 2.208 0 01-.11.231l-.415.793-.858-1.64v-.02H31.57v.02c.11.064.198.141.27.231.07.092.136.192.196.304l1.102 1.944v1.068c.009.186.003.368-.02.545a.597.597 0 01-.29.434v.02h2.003v-.02a.866.866 0 01-.28-.452 2.09 2.09 0 01-.044-.54zm3.638.229V4.325c-.01-.188-.003-.37.02-.547a.597.597 0 01.291-.431v-.021h-1.988v.02a.602.602 0 01.291.432c.023.175.03.355.019.541v2.588c.01.186.004.364-.019.538a.597.597 0 01-.291.427v.02h3.223l.28-.97a1.57 1.57 0 01-.494.238 2.04 2.04 0 01-.555.067 3.2 3.2 0 01-.4-.02 1.359 1.359 0 01-.377-.098zm4.449-3.953a2.93 2.93 0 00-1.303.293 2.324 2.324 0 00-.943.826c-.237.359-.359.789-.364 1.29.005.496.117.924.339 1.285.22.36.521.638.9.834.38.195.809.294 1.288.296a2.962 2.962 0 001.303-.287 2.31 2.31 0 00.944-.826c.237-.361.358-.797.364-1.308-.004-.517-.114-.954-.332-1.31a2.113 2.113 0 00-.891-.814 2.95 2.95 0 00-1.305-.279zm-.926 3.515a2.682 2.682 0 01-.237-.63 2.852 2.852 0 01-.089-.67c-.001-.246.04-.484.123-.715.084-.23.212-.42.388-.57.173-.15.396-.227.67-.232.315.01.565.118.75.326.185.209.317.462.397.76.079.297.118.583.116.86.002.173-.014.346-.05.515a1.232 1.232 0 01-.614.827 1.07 1.07 0 01-.517.133.966.966 0 01-.543-.175 1.3 1.3 0 01-.394-.43zm8.295 1.367v-3.7a2.185 2.185 0 01.042-.54.879.879 0 01.274-.451v-.021h-1.38v.02a.882.882 0 01.273.452c.035.161.05.341.043.54v1.799l-2.21-2.79v-.021H45.51v.02c.128.136.221.256.28.362.06.105.098.218.116.336.015.12.023.266.021.441v2.394c.006.2-.008.38-.044.54a.863.863 0 01-.28.453v.021h1.39v-.021a.87.87 0 01-.276-.452 2.272 2.272 0 01-.042-.54V5.045h.022l1.38 1.778c.115.147.217.274.304.383.088.11.188.207.295.296.108.088.25.173.424.258.115.057.253.117.418.178.164.061.313.094.445.099z" fill="#fff"/><path d="M12.561 5.252c-.77.024-1.826-.12-2.561-.509.104.69.05 1.533.042 1.866.301-.097 1.89-.556 2.566-.495-.543.51-1.486 1.217-2.158 1.476.436.18 1.155.888 1.354 1.253.407-.762 1.249-2.16 1.5-2.382.042-.037.07.002.075.029.063.266.22 2.947.249 2.987.01.015.03.008.031.005.013-.052.078-2.619.156-3.093.02-.123.118-.103.185-.057.342.234 2.208 1.757 2.28 1.756.016 0 .048-.017.035-.04-.032-.053-1.8-1.745-2.036-2.102-.023-.034.01-.101.022-.102.645-.07 2.67-.297 2.838-.334.045-.01.036-.027-.003-.026a87.41 87.41 0 01-2.68-.068c-.077-.005-.187-.15-.087-.27.208-.246 1.736-1.899 1.988-2.222.05-.063.035-.087-.039-.045-.41.234-1.828 1.661-2.2 1.956-.077.06-.195-.006-.18-.104.145-.882.34-1.565.687-2.719A4.082 4.082 0 0112.601 2c.294.905.63 2.018.63 2.692-.517-.56-1.368-1.796-1.626-2.318-.3.604-.824 1.13-1.28 1.437.668.307 1.8 1.003 2.236 1.441z" fill="#E30016"/><path d="M46.936 12.897c-.487.185-1.22.59-1.42.922-.233.386-.33.935.46.872.6-.047 2.204-.648 2.612-.831.407-.184 1.221-.618 1.203-.804-.017-.187-.526-.269-1.061-.332-.536-.065-1.307-.011-1.794.173zM32.798 14.54c-.514.418-1.317 1.027-1.38 1.604-.065.578-.033 1.188.898.804.703-.292 2.439-1.477 2.857-1.862.416-.385 1.09-1.059.994-1.284-.096-.225-.546-.322-1.22-.193-.673.128-1.636.513-2.15.931zm-13.473-2.514c-.06-.893-.193-2.013-.3-2.563-.106-.548-1.14-.974-2.17-.583-1.033.393-4.158 1.985-5.388 3.432-.602.706-.798.725-.763 1.58.036.853.692 2.562 1.083 2.705.391.142 1.265.284 3.167.142 1.901-.142 3.217-.214 3.252.035.037.25-.66.941-2.419 1.474-1.759.534-4.051.372-4.763-.391-.072 1.103.122 2.704.443 2.954.32.249 1.87.747 3.203.64 1.33-.105 3.203-.783 3.999-1.316.8-.534 1.26-1.567 1.618-1.567.355 0 .604.57.711.853.106.286.462.963 1.032.963.57 0 1.018-.712 1.317-1.21.3-.499.727-1.459 1.045-1.424.322.035 1.175 2.456 1.674 2.883.463-.462 1.226-1.566 1.582-2.207.355-.64.89-1.331 1.316-1.225.427.108.427.905.32 1.724a109.71 109.71 0 01-.426 2.704l1.032 1.902s.818-4.678 1.03-4.82c.214-.143.564.999.835 1.246.427.39 1.673-.392 2.313-.783 1.103-.677 1.758-1.566 1.972-1.566.214 0 .19.882.297 1.558.105.675.557 1.326.877 1.823.323.498.606.82 1.246.534.64-.287 1.794-1.423 1.794-1.423s.178-2.1-.07-2.279c-.548.32-1.973 1.353-2.294 1.104-.32-.25-.23-.868-.107-1.14.286-.622.356-.833.712-.868.357-.036 2.684-.463 2.684-.463l-.106-2.277c-.222-.024-.458-.103-.89 0-.252.06-.655.142-.655-.141 0-.287.228-.8.406-.942.178-.142 1.602-.32 1.958-.32.355 0 1.566-.178 1.744.107.177.284.07.762-.143 1.366-.214.607-1.103 3.169-1.103 3.169l.89 2.505s.69-1.873.868-2.242c.177-.37.357-.634.711-.192.358.441 1.318 1.723 1.745 2.256.427.533 2.15 2.578 3.253 2.79.036 0 .036-3.004.036-3.004-.962.036-1.053-.213-1.494-.71-.444-.499-1.297-1.19-1.19-1.51.106-.32 1.403-.57 1.972-.891.57-.32 1.745-.96 1.993-1.494.248-.533.32-3.218.142-3.538-.178-.32-.854-1.245-1.672-1.317-.818-.07-1.865-.214-2.256-.035-.392.178-1.07.499-1.317.499-.25 0-.642-.464-.961-.429-.322.037-6.008.495-6.329.641-.482.219-.37.743-.415 1.418-.02.314-.637.96-.816.96-.177 0-.486-2.092-1.02-2.271-.532-.177-1.509-.232-2.247.12-.737.353-1.701.995-1.99.834-.289-.161-.803-1.925-1.028-1.925-.224 0-.385.193-.416.546-.032.353 0 .578-.192.93-.194.354-1.541 2.087-2.087 2.76-.545.674-1.989 2.47-2.246 2.375-.257-.097.065-1.54.257-2.086.192-.545.417-1.476.417-1.476l-.738-2.44c-.673 1.06-2.193 3.916-2.546 4.526-.353.609-1.465 1.989-1.722 1.926-.257-.066-.096-1.19.289-2.151.385-.963.9-2.342.9-2.342l-.9-2.375s-.77.848-1.123 1.636c-.696 1.552-.739 3.017-.994 3.21-.257.191-.547-.483-1.317-.674-.77-.194-2.246-.45-2.953-.321-.705.127-2.245.351-2.31.16-.064-.193 1.188-1.187 2.022-1.572.835-.385 1.734-.931 2.31-.898.579.03 1.052-.139 1.41.411z" fill="#00519E"/></g></svg>