<svg width="83" height="24" fill="none" xmlns="http://www.w3.org/2000/svg"><rect width="83" height="24" rx="12" fill="#003F80"/><mask id="a" maskUnits="userSpaceOnUse" x="0" y="0" width="83" height="24"><rect width="83" height="24" rx="12" fill="#fff"/></mask><g mask="url(#a)"><path fill-rule="evenodd" clip-rule="evenodd" d="M70.845 15.102c-.016.135-.067.49-.53.536h-4.066a.587.587 0 01-.565-.536V8.834c.017-.135.081-.422.544-.468h4.088c.463.046.513.333.53.468v6.268zm1.41-9.098h-7.978c-1.199.097-2.211.704-2.346 2.061v7.761c.135 1.358 1.148 2.078 2.346 2.174h7.977c1.198-.096 2.211-.816 2.346-2.174v-7.76c-.135-1.358-1.148-1.965-2.346-2.062zM39.97 8.366h-3.566V6.004H47.29v2.362h-3.566V18H39.97V8.366zm-4.692 0V6.004h-9.76V18l9.89-.003.003-2.359h-6.13V13.07h5.997v-2.357h-5.996V8.366h5.996zm21.772 1.859c0 .26-.064.488-.53.488h-4.35V8.357h4.355c.53 0 .525.345.525.562v1.305zm1.04 3.112c1.17-.094 2.339-.89 2.339-2.197V8.178C60.294 6.827 59.278 6.096 58.075 6h-9.658v12h3.754v-4.663h1.494L56.105 18h4.318l-2.906-4.663h.574zM17.747 18l2.515-7.535V18h3.755V6.004h-5.068l-2.44 5.998-2.44-5.998H9V18h3.755v-7.535L15.288 18h2.46z" fill="#FFE511"/></g></svg>