<svg width="90" height="24" fill="none" xmlns="http://www.w3.org/2000/svg"><rect width="90" height="24" rx="12" fill="#D63330"/><mask id="a" maskUnits="userSpaceOnUse" x="0" y="0" width="93" height="24"><path fill="#fff" d="M0 0h93v24H0z"/></mask><g mask="url(#a)" fill-rule="evenodd" clip-rule="evenodd" fill="#fff"><path d="M8 19h4.328V5.007H8v13.991zm11.34-5.318c-2.251-1.98-6.013-1.214-6.013-1.214 0 .791-.106 3.325 1.96 5.172 2.252 1.98 6.013 1.188 6.013 1.188s.318-3.193-1.96-5.146zm-4.053-7.319c-2.066 1.841-1.96 4.34-1.96 5.155 0 0 3.761.762 6.013-1.21 2.278-1.972 1.96-5.154 1.96-5.154s-3.761-.79-6.013 1.21zm35.23 8.241l-1.676-3.28h-1.885l2.645 5.027-1.336 2.635h1.885l3.797-7.662h-1.833l-1.597 3.28zm7.223-1.607c.663 0 1.22.262 1.618.654l1.247-1.255c-.69-.68-1.619-1.072-2.839-1.072-.61 0-1.193.104-1.777.392-1.273.628-2.042 1.91-2.042 3.426 0 1.569.848 2.929 2.201 3.53a4.4 4.4 0 001.671.314c1.114 0 1.91-.34 2.732-1.125l-1.034-1.255c-.53.47-1.008.733-1.75.733-1.194 0-2.043-.968-2.043-2.197 0-1.177.822-2.145 2.016-2.145zm4.195 5.989h5.327v-1.613h-3.668v-1.479h2.763v-1.586h-2.763v-1.371h3.668v-1.613h-5.327v7.662zm18.189-1.615h-1.458v-2.043h1.458c.636 0 1.034.51 1.034 1.022 0 .51-.371 1.021-1.034 1.021zm2.07-2.82c-.504-.539-1.167-.808-1.962-.808h-1.564v-2.42h-1.75v7.663h3.314c1.75 0 2.677-1.317 2.677-2.608 0-.699-.265-1.344-.716-1.828zm-12.04-1.705c-.293 4.218-.957 4.458-1.834 4.351l-.053 1.735c2.046.294 3.003-.534 3.455-4.538l.16-1.468h1.647v6.006h1.728v-7.608H70.26l-.106 1.522zm-40.417-1.522l-2.397 3.145v-3.145h-1.683v7.662h1.683v-3.2l2.295 3.2h2.22l-2.96-3.952 3.087-3.71h-2.245zm5.644 4.431l.832-2.178.865 2.178H35.38zm.026-4.431l-3.11 7.662h1.85l.616-1.613h2.953l.64 1.613h1.93l-3.27-7.662h-1.61zm8.41 4.013h-1.445v-2.313h1.445c.657 0 1.025.646 1.025 1.157 0 .537-.394 1.156-1.025 1.156zm.124-4.013H40.63v7.662h1.734l.027-2.043h1.392c1.025 0 1.63-.323 2.13-.834.446-.484.709-1.317.709-1.99 0-1.316-.92-2.795-2.68-2.795zm14.655-3.956h-1.248v-.554h1.082v-.655h-1.082v-.53h1.22V5h-1.97v2.998h1.998v-.63zm-7.568-1.725h.333c.277 0 .444.075.444.35 0 .275-.222.35-.444.35h-.333v-.7zm0 1.356h.361c.777 0 1.221-.475 1.221-1 0-.524-.305-.999-1.332-.999-.25 0-.832.025-.998.025v2.973h.749v-1zm-20.741-.865v1.864h.692V5h-.615l-1.332 1.865V5h-.717v2.998h.615l1.357-1.864zM26.45 5.63h1.204V5h-1.997v2.998h.793V5.63zm11.507 1.738h-1.259v-.554h1.067v-.655h-1.067v-.53h1.204V5H35.96v2.998h1.998v-.63zm4.977-1.259l.797 1.159h.096l.798-1.185v1.915h.652V5h-.604l-.846 1.26L42.934 5h-.653v2.998h.653v-1.89zm11.075.453l1.034 1.436h.905l-1.241-1.612L55.844 5h-.827l-1.008 1.31V5h-.724v2.998h.724V6.562zM33.046 5.63h1.165v2.368h.749V5h-2.663v2.998h.749V5.63zm26.559 0h.95v2.368h.762V5.63h.95V5h-2.663v.63zm-11.848.25l.339.832h-.653l.314-.832zm.591 1.488l.242.63h.7L48.082 5h-.58l-1.208 2.998h.677l.242-.63h1.135zm-7.955-1.025h-.356v-.7h.329c.274 0 .466.075.466.35 0 .275-.247.35-.439.35zm1.23-.344c0-.524-.33-.999-1.344-.999-.246 0-.795.025-.987.025v2.973h.74v-1h.357c.768 0 1.234-.474 1.234-.999z"/></g></svg>