<svg width="90" height="24" fill="none" xmlns="http://www.w3.org/2000/svg"><g clip-path="url(#clip0)"><rect width="90" height="24" rx="12" fill="#00A653"/><mask id="a" maskUnits="userSpaceOnUse" x="0" y="0" width="93" height="24"><path fill="#fff" d="M0 0h93v24H0z"/></mask><g mask="url(#a)" fill-rule="evenodd" clip-rule="evenodd"><path d="M14.506 11.406h5.778s.7-.106.72-.45c.019-.299-.221-.721-.221-.721l-2.837-4.908S17.803 5 17.381 5c-.403 0-.518.297-.518.297l-2.874 4.918s-.288.47-.201.75c.124.412.718.441.718.441z" fill="#EC008C"/><path d="M10.735 17.802h5.779s.7-.097.719-.452c.018-.298-.22-.72-.22-.72l-2.837-4.909s-.145-.326-.567-.326c-.402 0-.516.308-.516.308l-2.876 4.908s-.287.47-.2.749c.124.413.718.442.718.442z" fill="#F68B1E"/><path d="M18.253 17.802h5.78s.698-.097.718-.452c.019-.298-.221-.72-.221-.72l-2.837-4.909s-.144-.326-.565-.326c-.402 0-.527.308-.527.308l-2.865 4.908s-.287.47-.201.749c.124.413.718.442.718.442z" fill="#FDB813"/><path d="M48.411 16.026c1.074 1.19 2.2 2.026 3.946 2.09.93.022 1.754-.05 2.47-.394 1.287-.737 2.156-2.074 2.158-3.557-.006-1.484-.988-2.826-2.28-3.45l-1.252-.53L52.37 9.7c-.468-.258-.664-.625-.54-1.113.117-.344.34-.586.651-.696.974-.264 1.884.243 2.597.839.019.01.047.046.047.046l1.493-2.042-.329-.336c-1.416-1.26-3.86-1.549-5.544-.655-1.315.736-1.955 2.108-1.778 3.579.136 1.262 1.133 2.415 2.262 2.918l1.863.747.479.258c.375.241.732.644.674 1.12-.03.466-.467.902-.893 1.033-1.352.233-2.438-.537-3.355-1.462l-.03-.029-1.557 2.12zm9.248 1.85V5.291l5.77 6.262 5.778-6.271v12.04l5.57-11.972 5.845 12.525H77.91l-1.14-2.45H72.8l-1.14 2.45h-5.049v-5.928l-3.182 3.42-3.192-3.42v5.927h-2.578zm18.013-4.898l-.89-2.017-.882 2.017h1.772zM29.05 7.828v3.794h1.726s1.744-.048 1.734-1.902c0-1.65-1.503-1.86-1.71-1.888a.16.16 0 01-.024-.004H29.05zm6.221 2.247c0 2.844-2.472 3.91-3.872 3.91H29.05v3.88h-2.606V5.484h4.954c1.4 0 3.872 1.403 3.872 4.591zm12.63 7.803h-2.577V5.516H47.9v12.362zM38.32 7.835v3.794h1.725s1.743-.048 1.734-1.902c0-1.65-1.503-1.86-1.71-1.889a.16.16 0 01-.024-.003h-1.726zm6.303 10.034s-3.172.01-3.057 0c-.115.01-3.25-6.099-3.25-6.119v6.129h-2.654V5.526h4.926c1.409 0 3.891 1.403 3.891 4.582 0 2.824-2.472 3.525-2.472 3.525 0 .02 2.616 4.246 2.616 4.236z" fill="#fff"/></g></g><defs><clipPath id="clip0"><path fill="#fff" d="M0 0h90v24H0z"/></clipPath></defs></svg>