<svg width="65" height="24" fill="none" xmlns="http://www.w3.org/2000/svg"><rect width="65" height="24" rx="12" fill="#006C43"/><mask id="a" maskUnits="userSpaceOnUse" x="0" y="0" width="64" height="24"><path fill="#fff" d="M0 0h64v24H0z"/></mask><g mask="url(#a)"><path fill-rule="evenodd" clip-rule="evenodd" d="M9 17.955V10.42h1.181c.688 0 1.189.043 1.504.136.45.122.809.345 1.073.667.265.323.401.71.401 1.148 0 .287-.057.545-.179.781-.121.237-.315.452-.594.66.458.215.795.488 1.003.81.214.323.315.703.315 1.147 0 .424-.108.81-.33 1.162a2.1 2.1 0 01-.845.782c-.343.172-.823.258-1.431.258H9v-.015zm1.432-6.165v1.592h.315c.351 0 .609-.072.78-.223.173-.143.251-.344.251-.602 0-.237-.078-.423-.243-.56-.158-.135-.408-.207-.738-.207h-.365zm0 4.8v-1.92h.294c.565 0 .966.092 1.21.279a.916.916 0 01.365.767c0 .287-.1.502-.308.653-.207.15-.608.222-1.203.222h-.358z" fill="#fff"/><path d="M14.394 12.385h1.396v2.087l1.925-2.087h1.704l-2.477 2.718 2.513 2.86h-1.854l-1.661-1.971-.15.18v1.792h-1.396v-5.579zm5.536 0h1.424l1.446 3.5 1.596-3.5h1.432L22.342 20h-1.446l1.145-2.452-2.112-5.163zm11.967 1.12l-1.16.639c-.222-.23-.436-.387-.644-.474a2.01 2.01 0 00-.752-.136c-.522 0-.945.158-1.267.466-.322.316-.487.71-.487 1.198 0 .473.158.86.466 1.161.307.301.715.452 1.224.452.623 0 1.11-.215 1.46-.638l1.103.753c-.595.774-1.44 1.169-2.527 1.169-.981 0-1.747-.287-2.298-.868-.552-.58-.83-1.262-.83-2.036 0-.538.135-1.04.4-1.492.272-.452.644-.81 1.131-1.068a3.373 3.373 0 011.618-.388c.551 0 1.052.108 1.49.33.436.216.794.524 1.073.932z" fill="#fff"/><path fill-rule="evenodd" clip-rule="evenodd" d="M33.052 17.956v-7.537h1.181c.687 0 1.188.043 1.503.137.451.122.81.344 1.074.667.265.322.401.71.401 1.147 0 .287-.057.545-.179.781-.121.237-.315.452-.587.66.458.215.795.488 1.002.81.215.323.315.703.315 1.148 0 .423-.107.81-.329 1.161a2.1 2.1 0 01-.845.782c-.343.172-.823.258-1.431.258h-2.105v-.014zm1.431-6.166v1.592h.315c.351 0 .609-.072.78-.223.173-.143.251-.344.251-.602 0-.237-.078-.423-.243-.56-.158-.135-.408-.207-.737-.207h-.366zm0 4.8v-1.92h.294c.566 0 .966.092 1.21.279a.917.917 0 01.365.767c0 .287-.1.502-.308.653-.207.15-.608.222-1.203.222h-.358z" fill="#fff"/><path d="M39.489 17.954h-.745v-5.579h1.36v3.277l2.85-3.277h.673v5.579h-1.36v-3.205l-2.778 3.205zm10.625 0H48.69l-1.396-3.514-1.418 3.514h-1.417l2.376-5.579h.902l2.377 5.579zm6.271 0H54.96l-1.396-3.514-1.417 3.514h-1.418l2.377-5.579h.902l2.377 5.579zM24.07 20v-.732h32.308V20H24.069zM9 20v-.732h10.703V20H9z" fill="#fff"/><path d="M15.29 8.003s1.898.574 6.658.567c7.489-.015 14.798-3.951 18.342-4.403 3.544-.452 5.562-.029 6.722.688 1.16.71 1.811 1.836 1.811 1.836s-2.77-1.678-10.123-.129c-7.345 1.549-13.437 3.126-19.715 2.316-2.277-.294-3.694-.875-3.694-.875z" fill="#AEC90B"/><path d="M33.54 8.89s6.164-2.007 9.236-2.157c3.07-.151 4.488.265 5.662.724 1.182.459 1.64 1.075 1.64 1.075S47.493 7.6 44.422 7.6c-3.071 0-10.881 1.29-10.881 1.29zm-9.272-2.311c2.885-.538 3.07-.689 5.82-1.635 2.169-.746 3.923-1.463 5.111-1.685 1.418-.266 1.998-.273 2.535-.251 1.202.05 2.298.666 2.298.666s-1.189-.315-4.618.86c-2.32.797-4.696 1.485-6.128 1.743-1.21.223-2.785.445-5.018.301z" fill="#fff"/></g></svg>