<svg width="88" height="24" fill="none" xmlns="http://www.w3.org/2000/svg"><rect width="88" height="24" rx="12" fill="#0AF"/><path fill-rule="evenodd" clip-rule="evenodd" d="M22.816 7.773c-.232.15-.407.263-.36.277.805.26 1.854 1.123 1.787 1.45-.455.609-1.265.766-1.426.798l-.029.006a.41.41 0 00.045.05c.134.147.53.578.623.967.095.375.046.812.008.907-.08.246-.3.266-.46.28l-.027.003c-.557.055-1.336-.248-1.336-.248s.055 1.411-.308 1.726c-.807.166-1.816-.564-1.97-.76-.017.078-.464.933-.657 1.071-1.333-.572-1.857-1.28-2.066-1.698l-.016.016a1.47 1.47 0 01-.174.146c-.241.177-.61.315-1.205.42h-.005c-.126.02-.389.02-.487.02-.49 0-1.142-.236-1.173-.52l-.002-.004v-.006a.486.486 0 01.055-.265c.068-.155.116-.318.142-.485l.011-.079c.013-.121.042-.24.085-.355-.532.06-1.231-.02-1.85-.54-.14-.3.09-1.1.392-1.679l-.045-.026c-.36-.216-1.473-.881-1.379-1.507.018-.118.495-.603 1.022-.76-.918-.765-.949-1.148-.959-1.274v-.008c.203-.205.978-.469 1.416-.44-.2-.297-.473-.952-.447-1.05.434-.121.963-.01 1.268.055.12.025.205.043.236.037l.018-.19c.041-.46.068-.754.15-.82.525-.07 1.108.296 1.433.5l.078.048c.25-.422.517-.742.644-.836.305.145.474.396.63.63.054.08.106.158.162.23 1.325-1.83 2.024.074 2.191.674 1.445-.6 1.497-.513 1.735-.095.182.399.226.813.255 1.09.02.199.034.326.087.325 1.426-.028 2.787.516 2.777 1.182.002.174-.504.501-.87.737zm-2.832 2.602l.505-.117-.126-.482.383-.252-.297-.473.225-.366-.442-.41.053-.45-.543-.312-.13-.476-.592-.193-.305-.461-.577-.044-.447-.406-.51.111-.543-.308-.39.248-.588-.181-.235.363-.577-.032-.056.442-.506.117.13.482-.386.252.296.47-.23.366.443.417-.05.443.545.315.13.477.591.189.301.465.582.043.447.405.506-.113.547.311.387-.249.592.182.234-.366.577.035.056-.442z" fill="#FFE100"/><path fill-rule="evenodd" clip-rule="evenodd" d="M17.648 16.315c.48-.301 1.826-1.146 3.486.274.15.159.313.423-.085.649-.396.23-.525.366-.624.647-.1.276-.537 1.248-1.998 1.359-1.485.12-1.724.25-2.038.507 0 0-.168.151-.314.22.107 1.085.474 1.668.474 1.668s-.57.237-1.11-.6c-.488-.752-.268-2.717-.268-2.717.002-.024.006-.047.01-.07l.006-.038a1.768 1.768 0 01-.269-.215c-.25-.214-.552-.427-2.043-.55-1.46-.123-1.897-1.193-1.996-1.503-.104-.309-.233-.459-.63-.71-.397-.248-.237-.539-.083-.712 1.656-1.57 3-.644 3.48-.313l.113.075c1.143.825 1.627 1.616 1.805 2.274l.091-.276c.102-.304.224-.67.393-1.253.548-1.668.587-2.37.587-2.37.033-.35.048-.345.14-.31h.005c.369.203.103 1.939.004 2.558-.043.278-.158.83-.28 1.417-.082.398-.168.811-.238 1.167.289-.357.69-.73 1.273-1.111.029-.016.065-.04.11-.067zm-6.93-1.481c2.356-.448 3.672.97 4.213 1.99-1.96-2.034-4.213-1.99-4.213-1.99zm5.601 3.813c.54-.925 1.616-2.149 4.212-1.813 0 0-3.01.377-4.212 1.813z" fill="#96DE16"/><path fill-rule="evenodd" clip-rule="evenodd" d="M46.26 13.452h-5.58v1.708h5.932l-.003 2.91h-8.896V6.438h8.722l-.003 2.911-5.755-.004v1.199h5.583v2.908zm8.57-2.908h-4.096V6.438h-2.902v4.106h-.851v2.908h.851v4.618h2.902v-4.618h4.096v4.618h2.903V6.438H54.83v4.106zm12.915-4.106h-8.898V9.35h2.993v8.72h2.912V9.35h2.993V6.44zM24.736 18.071h3.087l2.973-8.725h2.349l-.004 8.725h3.09V6.439h-7.55L24.737 18.07zM73.81 6.439h-3.602l-1.801 5.305h-1.975v2.903h.99l-1.16 3.423h2.916l1.158-3.423h3.342l1.16 3.423h2.917L73.81 6.44zm-2.487 5.306l.685-2.013.686 2.013h-1.37z" fill="#fff"/></svg>