<svg width="75" height="24" fill="none" xmlns="http://www.w3.org/2000/svg"><rect width="75" height="24" rx="12" fill="#DA2100"/><g clip-path="url(#clip0)"><path d="M23.539 7.93c-.148.131-.148.328 0 .426.147.13.367.13.478 0 .147-.131.147-.328 0-.426-.147-.13-.368-.13-.478 0z" fill="#DA2100"/><path d="M26.923 7.734h-1.471l-.368.393c-.074.065-.037.098.036.13l.479.197 1.36-.557c.111-.032.074-.163-.036-.163zM21.458 14l-1.82.153c-.478.262-.625.327-1.25.557-.037 0-.074.065-.037.098l1.619 4.028h.92l-1.472-3.7c.957 0 3.274-.23 4.525-2.031-.405.524-1.307.895-2.485.895zm2.559-5.644c-.147.13-.368.13-.479 0-.147-.131-.147-.328 0-.426.148-.13.368-.13.479 0-.287-.34-.863-.262-1.12 0-.258.262-.334.655-.04.917.295.262.902.262 1.16 0 .388-.16.294-.655 0-.917.11.131.11.295 0 .426zm-3.569 7.336l1.251 3.144h.92l-1.325-3.308c-.22.066-.515.099-.846.164zm1.251-3.93c.11-.131.304-.41.414-.575-.037-.032-.327-.144-.327 0-1.877 1.769-3.345 2.049-4.743 2.049h-1.989c-.074 0-.492.065-.455 0 1.655-2.03 3.458-3.636 4.82-4.65l-3.57 2.652a1.835 1.835 0 01-1.066.328h-4.489c-.11 0-.073.098-.073.163.294.852 1.177 1.638 2.649 1.638l-1.067.95c-.037.032-.037.13.073.13h4.01c2.87 0 4.672-1.113 5.813-2.685z" fill="#fff"/><path d="M61.726 18.836H65V9.83h-3.274v3.308h-3.09V9.83H55.36v9.006h3.275V15.43h3.09v3.406zm-38.74-9.989c-.294-.262-.294-.655 0-.917.295-.262.773-.262 1.03 0 .258.262.295.655 0 .917-.294.262-.772.262-1.03 0zm.92 4.258c1.251-1.802 1.693-4.65 1.693-4.65l-.479-.197c-.073-.033-.073-.066-.036-.131l.367-.393c-.22-.393-1.03-1.048-2.207-1.048-.699 0-1.324.163-1.876.49 0 0-.81.492-1.95 1.376-1.361 1.048-3.164 2.62-4.82 4.651-.036.066 0 .131.074.131h2.134c1.398 0 3.2-.23 5.077-1.998.037-.033.073-.033.11-.033.037.033.037.066.037.099-.294.655-1.03 1.932-2.391 2.718h1.803c1.213 0 2.096-.491 2.464-1.015zm-1.84 2.161l1.399 3.537h3.973c-.81-2.194-1.692-4.224-2.538-6.091-.662 1.277-1.288 1.9-2.833 2.554zM10 18.836h4.01l1.361-3.766h-3.9A74.45 74.45 0 0010 18.836zm5.408-8.09l2.023-1.473c.442-1.048.883-2.096 1.325-2.98.22.458.441.95.662 1.44 1.104-.818 1.803-1.31 2.723-1.539A91.405 91.405 0 0021 4h-4.488c-.368.72-1.803 3.373-3.495 6.943h1.619c.33 0 .588-.032.772-.196zm24.796 7.075l.22.982h2.65V9.83h-3.275v6.255c-.294.295-.846.622-1.36.622-.92 0-1.399-.458-1.399-1.31V9.83h-3.274v6.255c-.294.295-.92.622-1.472.622-.846 0-1.324-.458-1.324-1.31V9.83h-3.274v5.96c0 2.162 1.066 3.243 3.274 3.243 1.582 0 2.538-.524 3.274-1.212.515.819 1.435 1.212 2.796 1.212 1.582-.033 2.465-.524 3.164-1.212zm10.411-1.769c-.294.295-.772.623-1.582.623-.883 0-1.36-.72-1.36-2.13 0-1.735.514-2.586 1.581-2.586.626 0 .92.032 1.361.13v3.963zM47.893 19h.11c1.472 0 2.465-.459 3.017-1.179l.184.982h2.686V10.19c-1.067-.295-2.318-.557-4.599-.557-3.274 0-5.04 1.769-5.04 5.044C44.25 17.69 45.5 19 47.893 19z" fill="#fff"/></g><defs><clipPath id="clip0"><path fill="#fff" d="M10 4h55v15H10z"/></clipPath></defs></svg>