<svg width="170" height="49" fill="none" xmlns="http://www.w3.org/2000/svg"><g clip-path="url(#clip0)" fill-rule="evenodd" clip-rule="evenodd"><path d="M164.501.01H5.497A5.502 5.502 0 000 5.517v37.99a5.503 5.503 0 005.498 5.505h159.004A5.503 5.503 0 00170 43.506V5.516A5.501 5.501 0 00164.501.01z" fill="#000"/><path d="M32.608 11.911c2.028-2.49 1.605-5.074 1.605-5.074s-2.837.012-4.877 2.763c-1.814 2.443-1.352 4.534-1.352 4.534s2.46.435 4.622-2.224l.002.001zm3.892 11.75c0-4.261 3.36-6.016 3.36-6.016s-1.72-3.174-6.082-3.174c-2.536 0-4.484 1.475-5.533 1.475-1.222 0-3.047-1.388-5.398-1.388-3.619 0-7.476 3.313-7.476 9.628 0 6.416 4.556 14.398 8.165 14.398 1.258 0 3.191-1.297 5.138-1.297 1.912 0 3.321 1.25 5.137 1.25 3.95 0 6.874-8.415 6.874-8.415s-4.183-1.656-4.183-6.461H36.5zM56.155 8.298c.563-.352 1.332-.644 2.353-.644 1.61 0 2.617.826 2.617 2.055 0 1.02-.696 1.739-1.643 1.971v.024c1.069.12 1.934.852 1.934 1.98 0 1.777-1.658 2.435-3.16 2.435-.793 0-1.632-.17-2.294-.56l.35-1.155c.396.218 1.177.497 1.884.497 1.057 0 1.658-.511 1.658-1.289 0-1.046-1.034-1.313-1.923-1.313h-.636v-1.118h.638c.935 0 1.657-.501 1.657-1.241 0-.67-.517-1.071-1.333-1.071-.624 0-1.286.256-1.74.5l-.362-1.072v.001zm10.298 7.685l-.096-.657h-.036c-.361.461-.973.79-1.73.79-1.177 0-1.838-.862-1.838-1.763 0-1.496 1.311-2.25 3.472-2.237v-.098c0-.39-.156-1.034-1.19-1.034-.575 0-1.176.182-1.572.437l-.287-.972c.431-.27 1.188-.524 2.112-.524 1.872 0 2.412 1.203 2.412 2.492v2.141c0 .533.026 1.058.085 1.422h-1.332v.004zm-.192-2.894c-1.044-.024-2.04.207-2.04 1.108 0 .582.372.85.84.85a1.2 1.2 0 001.153-.815c.035-.108.046-.23.046-.327v-.815h.001zm7.332-3.028v1.18h-2.389v4.742h-1.477V10.06h3.866zm1.377 1.97c0-.778-.024-1.41-.047-1.969h1.296l.073.912h.024c.432-.67 1.116-1.046 2.005-1.046 1.345 0 2.46 1.168 2.46 3.016 0 2.142-1.332 3.175-2.664 3.175-.733 0-1.344-.316-1.645-.792h-.024v3.064h-1.475V12.03h-.003zm1.477 1.47c0 .149.012.282.049.415a1.338 1.338 0 001.296 1.044c.937 0 1.49-.788 1.49-1.956 0-1.046-.505-1.896-1.453-1.896-.611 0-1.176.447-1.32 1.106-.036.12-.06.255-.06.377v.91h-.002zm6.768-3.44l1.056 3.174c.12.365.24.814.324 1.154h.035c.096-.341.204-.778.312-1.168l.912-3.161h1.585l-1.466 4.037c-.803 2.214-1.344 3.199-2.04 3.807-.576.522-1.176.717-1.548.767l-.337-1.267a2.49 2.49 0 00.865-.413c.276-.18.601-.535.805-.935.06-.11.096-.195.096-.269 0-.06-.01-.144-.085-.29l-2.136-5.436h1.622zm6.168 2.396h.707c.808 0 1.275-.329 1.275-.754 0-.426-.396-.717-1.056-.717a2.85 2.85 0 00-1.442.426l-.313-.889c.635-.401 1.429-.583 2.185-.583.985 0 2.186.388 2.186 1.568 0 .767-.674 1.193-1.286 1.339v.025c.78.085 1.55.56 1.55 1.434 0 1.374-1.526 1.8-2.727 1.8-.77 0-1.536-.194-2.114-.535l.338-.948c.408.219 1.032.4 1.62.4.816 0 1.26-.34 1.26-.802 0-.62-.635-.815-1.463-.815h-.72v-.949zm6.876-2.396v2.128c0 .935-.036 1.57-.085 2.395h.035c.313-.692.493-1.13.793-1.75l1.44-2.772h1.791v5.923h-1.406v-2.117c0-.948.036-1.385.096-2.503h-.048a20.75 20.75 0 01-.77 1.7c-.456.878-.983 1.946-1.487 2.92h-1.766v-5.923h1.406l.001-.001zm10.31 0v1.156h-1.754v4.766h-1.479v-4.766h-1.753V10.06h4.986zm2.241 3.382c.035 1.068.864 1.532 1.799 1.532.686 0 1.177-.098 1.623-.269l.214 1.034c-.504.206-1.2.364-2.04.364-1.897 0-3.014-1.178-3.014-2.991 0-1.64.985-3.185 2.858-3.185 1.897 0 2.52 1.578 2.52 2.88 0 .28-.023.5-.046.633h-3.915l.001.002zm2.568-1.047c.011-.548-.228-1.449-1.213-1.449-.912 0-1.296.842-1.356 1.449h2.569zm6.01-2.263c.432-.072 1.32-.146 2.125-.146.985 0 2.762.135 2.762 1.496 0 .754-.576 1.18-1.2 1.314v.025c.864.133 1.463.618 1.463 1.447 0 1.63-2.111 1.787-3.289 1.787-.733 0-1.514-.048-1.861-.085v-5.838zm1.428 4.95c.24.026.42.037.719.037.673 0 1.49-.181 1.49-.876 0-.669-.648-.887-1.573-.887h-.637v1.725l.001.001zm.013-2.626h.611c.756 0 1.381-.219 1.381-.778 0-.474-.409-.73-1.286-.73-.287 0-.478.024-.707.047v1.46h.001zM65.27 36.99h-2.758l-1.51-4.855h-5.253l-1.44 4.855h-2.685l5.203-16.527h3.215l5.227 16.527zm-4.725-6.892l-1.366-4.314c-.144-.441-.414-1.479-.815-3.114h-.048c-.16.703-.414 1.741-.767 3.113l-1.343 4.315h4.34zm18.108.787c0 2.027-.536 3.628-1.607 4.804-.96 1.047-2.15 1.57-3.574 1.57-1.536 0-2.637-.564-3.309-1.691h-.049v6.277h-2.59v-12.85a82.56 82.56 0 00-.096-3.922h2.277l.145 1.889h.05c.863-1.422 2.173-2.133 3.933-2.133 1.374 0 2.521.554 3.44 1.666.92 1.114 1.38 2.578 1.38 4.39zm-2.639.096c0-1.16-.255-2.115-.767-2.868-.559-.785-1.311-1.177-2.252-1.177-.641 0-1.222.218-1.74.65-.52.434-.86 1.001-1.02 1.704-.078.33-.119.597-.119.81v1.985c0 .868.262 1.6.781 2.197.52.596 1.196.895 2.026.895.976 0 1.734-.384 2.278-1.15.542-.771.815-1.785.815-3.044l-.002-.002zm16.044-.096c0 2.027-.536 3.628-1.608 4.804-.958 1.047-2.15 1.57-3.572 1.57-1.535 0-2.638-.564-3.308-1.691h-.05v6.277h-2.59v-12.85a82.3 82.3 0 00-.095-3.922h2.277l.144 1.889h.048c.863-1.422 2.173-2.133 3.933-2.133 1.374 0 2.522.554 3.443 1.666.917 1.114 1.377 2.578 1.377 4.39h.001zm-2.637.096c0-1.16-.255-2.115-.768-2.868-.56-.785-1.31-1.177-2.253-1.177-.64 0-1.22.218-1.74.65-.52.434-.86 1.001-1.02 1.704-.078.33-.12.597-.12.81v1.985c0 .868.26 1.6.776 2.197.521.596 1.197.895 2.03.895.977 0 1.735-.384 2.278-1.15.544-.771.818-1.785.818-3.044l-.001-.002zm17.626 1.375c0 1.406-.478 2.549-1.435 3.432-1.054.965-2.52 1.449-4.404 1.449-1.74 0-3.134-.344-4.19-1.031l.601-2.208a6.978 6.978 0 003.743 1.055c.976 0 1.734-.226 2.28-.675.542-.45.814-1.055.814-1.806 0-.67-.223-1.236-.671-1.694-.446-.458-1.19-.884-2.231-1.278-2.83-1.08-4.243-2.66-4.243-4.74 0-1.358.495-2.473 1.487-3.34.989-.868 2.308-1.301 3.957-1.301 1.473 0 2.695.262 3.669.785l-.648 2.158c-.91-.506-1.94-.76-3.092-.76-.912 0-1.622.23-2.133.686a1.98 1.98 0 00-.648 1.497c0 .653.246 1.193.741 1.62.433.39 1.216.815 2.352 1.273 1.39.572 2.412 1.242 3.069 2.01.657.766.983 1.723.983 2.865l-.001.003zm8.563-5.296h-2.854v5.786c0 1.472.502 2.207 1.508 2.207.465 0 .848-.043 1.152-.123l.072 2.01c-.51.196-1.181.294-2.014.294-1.023 0-1.823-.32-2.399-.956-.574-.64-.864-1.709-.864-3.213v-6.008h-1.702V25.07h1.7v-2.184l2.544-.784v2.968h2.855v1.989h.002zm12.878 3.874c0 1.832-.512 3.334-1.535 4.511-1.073 1.211-2.497 1.815-4.272 1.815-1.708 0-3.07-.581-4.086-1.741-1.017-1.161-1.525-2.624-1.525-4.39 0-1.845.523-3.358 1.571-4.534 1.046-1.177 2.458-1.765 4.232-1.765 1.71 0 3.086.58 4.125 1.742.993 1.126 1.488 2.58 1.488 4.362h.002zm-2.686.085c0-1.097-.23-2.04-.695-2.828-.542-.951-1.32-1.425-2.325-1.425-1.041 0-1.831.476-2.374 1.425-.466.788-.695 1.745-.695 2.876 0 1.1.231 2.042.696 2.827.56.95 1.343 1.424 2.351 1.424.988 0 1.764-.483 2.325-1.45.478-.8.718-1.753.718-2.85l-.001.001zm11.104-3.617a4.429 4.429 0 00-.816-.075c-.91 0-1.615.352-2.111 1.057-.431.62-.648 1.406-.648 2.354v6.25h-2.588l.024-8.163c0-1.374-.032-2.625-.098-3.752h2.256l.096 2.28h.071c.274-.784.705-1.414 1.296-1.888.574-.426 1.199-.64 1.87-.64.24 0 .457.019.648.05v2.527zm11.581 3.066c0 .474-.031.874-.095 1.2h-7.769c.032 1.178.407 2.078 1.128 2.7.656.554 1.501.833 2.54.833 1.151 0 2.201-.188 3.145-.564l.403 1.838c-1.102.492-2.403.737-3.905.737-1.807 0-3.226-.543-4.259-1.63-1.031-1.086-1.546-2.545-1.546-4.378 0-1.796.478-3.293 1.44-4.486 1.006-1.274 2.365-1.911 4.076-1.911 1.678 0 2.951.637 3.814 1.91.686 1.013 1.031 2.264 1.031 3.75l-.003.001zm-2.469-.687c.015-.785-.153-1.462-.503-2.034-.449-.738-1.137-1.105-2.065-1.105-.846 0-1.535.36-2.061 1.08-.432.572-.688 1.258-.767 2.058h5.395v.002h.001z" fill="#fff"/></g><defs><clipPath id="clip0"><path fill="#fff" d="M0 0h170v49H0z"/></clipPath></defs></svg>