<svg width="457" height="413" fill="none" xmlns="http://www.w3.org/2000/svg"><ellipse rx="121.572" ry="191.799" transform="matrix(.55004 .83514 -.8396 .5432 228.369 206.366)" fill="#642373"/><g clip-path="url(#clip0)"><path d="M224.152 189.481c42.515-37.276 58.78-88.507 36.329-114.428-22.451-25.922-75.115-16.716-117.63 20.56-42.514 37.276-58.78 88.507-36.328 114.429 22.45 25.921 75.115 16.716 117.629-20.561z" fill="#FFE14B"/><path d="M150.594 137.332c30.14-26.427 43.949-60.116 30.844-75.248-13.106-15.13-48.163-5.975-78.303 20.452-30.14 26.426-43.95 60.116-30.844 75.247 13.106 15.131 48.163 5.975 78.303-20.451z" fill="#FFE14B"/><path d="M146.859 114.961l3.877.479c1.542.191 2.599-.384 2.759-1.69.118-.973-.394-1.742-1.251-2.115.754-.175 1.283-.688 1.389-1.564.151-1.237-.71-2.034-2.169-2.215l-3.682-.454-.923 7.559zm4.305-6.154c.82.101 1.302.542 1.219 1.223-.096.792-.7 1.112-1.478 1.016l-2.265-.28.273-2.237 2.251.278zm-.273 3.168c.875.108 1.474.634 1.372 1.468-.097.792-.728 1.109-1.631.997l-2.404-.297.3-2.46 2.363.292zm8.365 4.659c2.056.254 3.538-1.256 3.813-3.507.273-2.237-.8-4.077-2.857-4.331-1.25-.154-2.271.354-2.944 1.244l.079-1.457-1.126-.139-1.261 10.339 1.278.158.502-4.113c.459.974 1.307 1.657 2.516 1.806zm-.203-1.111c-1.459-.181-2.213-1.515-2.016-3.127.198-1.626 1.238-2.753 2.711-2.571 1.542.19 2.197 1.527 2.001 3.139-.199 1.626-1.154 2.749-2.696 2.559zm8.951 2.192c1.945.24 3.164-.498 3.746-1.921l-1.155-.355c-.412.951-1.23 1.414-2.467 1.261-1.598-.197-2.264-1.323-2.191-2.852l5.947.735c.048-.164.1-.355.124-.549.266-2.182-.922-3.894-3.103-4.164-2.376-.294-3.91 1.182-4.186 3.447-.284 2.321.868 4.099 3.285 4.398zm.791-6.829c1.376.17 2.096 1.204 2.032 2.536l-4.738-.585c.347-1.339 1.261-2.129 2.706-1.951zm5.961 7.522l.73-5.976 1.998 4.888 1.167.144 3.075-4.275-.731 5.99 1.153.142.923-7.56-1.459-.18-3.412 4.727-2.215-5.422-1.459-.181-.923 7.56 1.153.143zm10.077-4.031c-.149 1.223.546 2.113 1.73 2.471l-2.475 2.713 1.403.173 2.304-2.579 1.445.178-.345 2.822 1.265.156.924-7.574-3.237-.4c-1.626-.201-2.834.567-3.014 2.04zm2.636 1.75c-.917-.113-1.495-.692-1.385-1.596.108-.889.796-1.326 1.727-1.211l1.89.234-.343 2.807-1.889-.234zm-62.68 16.431l1.181.146.263-2.154 5.71.706-.263 2.154 1.181.145.397-3.251-1.014-.126.789-6.462-5.322-.657-.141.927c-.579 3.583-.803 4.613-1.634 5.413l-.75-.093-.397 3.252zm3.004-3.931c.381-.926.604-2.056.972-4.38l.003-.028 2.918.361-.665 5.447-3.807-.47c.23-.268.422-.569.579-.93zm10.206 3.518c2.362.292 3.888-1.114 4.174-3.463.285-2.334-.855-4.083-3.217-4.375-2.349-.29-3.876 1.129-4.161 3.464-.286 2.349.856 4.084 3.204 4.374zm.129-1.056c-1.57-.194-2.225-1.418-2.013-3.155.212-1.737 1.128-2.767 2.712-2.571 1.598.197 2.24 1.405 2.026 3.156-.212 1.737-1.127 2.767-2.725 2.57zm12.86-2.587c-.113-1.735-1.147-2.85-3.023-3.082-2.334-.288-3.86 1.117-4.148 3.48-.287 2.348.857 4.069 3.205 4.359 1.779.22 3.131-.572 3.702-2.251l-1.197-.359c-.399 1.192-1.25 1.693-2.376 1.554-1.556-.192-2.223-1.431-2.014-3.14.213-1.751 1.143-2.779 2.699-2.587 1.195.148 1.836.904 1.89 2.081l1.262-.055zm2.865 5.46l1.279.158.793-6.504 2.64.327.129-1.057-6.558-.81-.129 1.056 2.64.327-.794 6.503zm5.563-4.687l1.174.314c.225-1.03 1.066-1.448 2.191-1.309 1.167.144 1.825.762 1.656 2.151l-.021.167-2.642-.073c-1.855-.059-2.853.607-3.019 1.969-.165 1.348.72 2.304 2.304 2.5 1.223.151 2.289-.268 2.973-1.128l-.012.097c-.109.889.268 1.387 1.185 1.5.153.019.392.021.552-.016l.15-.884c-.042-.005-.154-.005-.224-.014-.347-.043-.521-.234-.466-.692l.411-3.363c.242-1.987-.792-2.99-2.695-3.225-1.765-.218-3.058.44-3.517 2.006zm.556 3.299c.092-.75.716-1.125 1.896-1.092l2.447.063-.056.458c-.159 1.307-1.436 2.179-2.909 1.997-.987-.122-1.474-.634-1.378-1.426zm7.55 3.077l3.876.479c1.542.19 2.6-.384 2.759-1.691.119-.972-.394-1.741-1.251-2.115.755-.175 1.283-.688 1.39-1.563.151-1.237-.711-2.035-2.17-2.215l-3.682-.455-.922 7.56zm4.305-6.155c.82.102 1.302.542 1.219 1.223-.097.792-.7 1.113-1.478 1.016l-2.265-.279.273-2.238 2.251.278zm-.274 3.169c.875.108 1.474.633 1.372 1.467-.096.792-.727 1.109-1.63.998l-2.404-.297.3-2.46 2.362.292zm4.408 4.029l1.279.157.473-3.877 3.236 4.336 1.612.199-3.334-4.461 4.159-3.111-1.542-.191-4.128 3.2.446-3.654-1.278-.158-.923 7.56zm7.938.98l1.251.155 4.698-5.331-.711 5.823 1.251.155.922-7.56-1.25-.155-4.698 5.33.71-5.822-1.25-.155-.923 7.56zm15.553 2.063c2.362.291 3.887-1.114 4.174-3.463.285-2.334-.856-4.083-3.218-4.375-2.348-.29-3.875 1.129-4.16 3.464-.287 2.348.856 4.083 3.204 4.374zm.129-1.057c-1.57-.194-2.225-1.417-2.013-3.154.212-1.737 1.127-2.767 2.711-2.571 1.598.197 2.241 1.405 2.027 3.156-.212 1.737-1.127 2.767-2.725 2.569zm7.285 1.831l1.279.158.793-6.503 2.64.326.129-1.056-6.558-.811-.129 1.057 2.64.326-.794 6.503z" fill="#004B46"/><path d="M131.604 152.057c.663-5.431-2.204-8.881-8.373-9.643-5.645-.697-9.084.933-9.514 4.459-.416 3.407 2.147 5.585 6.982 6.183 2.93.362 5.333-.115 6.785-1.314-.566 3.654-2.66 5.16-6.186 4.725-2.524-.312-3.947-1.141-4.194-2.477l-4.149.31c.536 2.944 3.365 4.72 7.939 5.285 6.169.762 10.039-2.025 10.71-7.528zm-8.778-6.525c3.049.376 4.558 1.482 4.366 3.054-.174 1.43-1.877 2.114-4.95 1.734-3.097-.382-4.564-1.434-4.372-3.006.18-1.477 1.86-2.165 4.956-1.782zm18.003 16.516c6.217.768 10.251-1.974 10.91-7.382.66-5.408-2.594-9.051-8.811-9.819-6.217-.768-10.251 1.974-10.911 7.382-.66 5.408 2.595 9.051 8.812 9.819zm.395-3.24c-3.715-.459-5.415-2.58-4.991-6.058.425-3.478 2.584-5.122 6.3-4.663 3.715.459 5.415 2.58 4.991 6.058-.425 3.478-2.584 5.122-6.3 4.663zm18.989 5.368l1.079-8.838 3.798 7.313 3.43.424 5.402-6.225-1.085 8.886 3.621.447 1.593-13.055-4.359-.538-6.529 7.342-4.642-8.722-4.359-.539-1.593 13.055 3.644.45zm18.469 2.282l3.835.474 9.068-7.537-1.041 8.528 3.835.474 1.593-13.055-3.835-.474-9.07 7.561 1.043-8.552-3.835-.474-1.593 13.055zm17.903 2.212l3.906.482.657-5.384 8.027.992-.657 5.384 3.883.48 1.593-13.056-3.882-.479-.567 4.645-8.027-.991.567-4.646-3.907-.482-1.593 13.055z" fill="#642373"/></g><g clip-path="url(#clip1)"><path d="M379.412 250.444c11.489-14.601-7.874-49.153-43.248-77.174-35.373-28.02-73.363-38.898-84.852-24.296-11.489 14.601 7.874 49.153 43.247 77.173 35.374 28.021 73.364 38.899 84.853 24.297z" fill="#fff"/><path d="M223.075 339.724c49.747 0 90.075-33.809 90.075-75.514 0-41.706-40.328-75.515-90.075-75.515S133 222.504 133 264.21c0 41.705 40.328 75.514 90.075 75.514z" fill="#fff"/><path d="M311.863 345.973c44.002 0 79.673-27.98 79.673-62.495s-35.671-62.495-79.673-62.495c-44.003 0-79.674 27.98-79.674 62.495s35.671 62.495 79.674 62.495z" fill="#fff"/><path d="M180.285 263.688c-20.368 44.788 39.447 75.973 68.513 46.871l-68.513-46.871z" fill="#fff"/><path d="M180.285 263.688c-20.368 44.788 39.447 75.973 68.513 46.871m142.737-14.331c24.395 18.498 17.128 42.454-42.043 16.415" stroke="#000" stroke-width="1.76" stroke-miterlimit="10"/><path d="M345.631 266.24h33.593c6.725 0 12.176-5.47 12.176-12.217 0-6.748-5.451-12.218-12.176-12.218h-33.593c-6.725 0-12.177 5.47-12.177 12.218 0 6.747 5.452 12.217 12.177 12.217zm-52.766 0a20.413 20.413 0 005.777 14.696 20.285 20.285 0 0014.512 6.128 20.285 20.285 0 0014.512-6.128 20.413 20.413 0 005.777-14.696m-86.347 0h33.592c6.726 0 12.177-5.47 12.177-12.217 0-6.748-5.451-12.218-12.177-12.218h-33.592c-6.725 0-12.177 5.47-12.177 12.218 0 6.747 5.452 12.217 12.177 12.217z" stroke="#000" stroke-width="2" stroke-miterlimit="10"/><path d="M362.418 241.451h15.529c6.903 0 12.499 5.596 12.499 12.499 0 6.903-5.596 12.499-12.499 12.499h-15.529v-24.998zm-97.58 0h15.529c6.903 0 12.499 5.596 12.499 12.499 0 6.903-5.596 12.499-12.499 12.499h-15.529v-24.998z" fill="#000"/></g><defs><clipPath id="clip0"><path fill="#fff" d="M52.999 53.705h227v177.14h-227z"/></clipPath><clipPath id="clip1"><path fill="#fff" d="M133 141h273v209H133z"/></clipPath></defs></svg>