<svg width="170" height="49" fill="none" xmlns="http://www.w3.org/2000/svg"><path fill-rule="evenodd" clip-rule="evenodd" d="M164.501 0H5.497A5.502 5.502 0 000 5.505v37.99A5.503 5.503 0 005.498 49h159.004A5.503 5.503 0 00170 43.495V5.505A5.502 5.502 0 00164.501 0z" fill="#000"/><path fill-rule="evenodd" clip-rule="evenodd" d="M36.176 33.164l5.38-3.003c1.497-.836 1.497-2.202.001-3.042l-5.433-3.04-4.495 4.638 4.548 4.446-.001.002z" fill="url(#paint0_linear)"/><path fill-rule="evenodd" clip-rule="evenodd" d="M31.63 28.718S20.808 39.765 17.549 43.035c.264.053.56.034.877-.057l3.949-2.11 13.712-7.656.087-.049-4.546-4.446.004.001z" fill="url(#paint1_linear)"/><path fill-rule="evenodd" clip-rule="evenodd" d="M17.401 14.27c-.648.213-1.076.873-1.076 1.887v24.937c0 1.079.502 1.775 1.224 1.939l14.082-14.315L17.4 14.27z" fill="url(#paint2_linear)"/><path fill-rule="evenodd" clip-rule="evenodd" d="M19.049 14.53c-.572-.32-1.099-.405-1.539-.303-.04.01-.071.032-.108.043l14.227 14.45 4.496-4.64-17.076-9.55z" fill="url(#paint3_linear)"/><path fill-rule="evenodd" clip-rule="evenodd" d="M98.754 33.35c.49-.5.531-1.2.531-1.592 0-1.57-.916-4.011-2.685-4.011-.554 0-1.15.285-1.492.72-.362.457-.47 1.045-.47 1.613 0 1.459.834 3.88 2.667 3.88a2.143 2.143 0 001.45-.61zm33.549-10.578l1.117.016c-.032 4.826-.044 9.651-.021 14.476-.364.005-.729.009-1.094.011-.008-4.834-.005-9.667-.002-14.502zm-7.502 3.974c1.605-.563 3.517-.096 4.651 1.203.965 1.102 1.331 2.623 1.314 4.074.011 1.523-.398 3.146-1.492 4.243-1.164 1.227-3.065 1.579-4.613.989-.852-.318-1.562-.94-2.111-1.665.032 1.9.021 3.796.007 5.695-.372-.008-.74-.016-1.109-.022.021-4.831-.011-9.661.014-14.49l1.098.016c.011.537.011 1.072-.006 1.609.588-.744 1.347-1.364 2.249-1.651l-.002-.002zm.376.889c-1.045.305-1.976 1.038-2.56 1.97-.126 1.262-.011 2.549-.057 3.82.028.395-.092.863.185 1.194a5.075 5.075 0 002.112 1.687c1.195.492 2.648.16 3.533-.788.923-.965 1.222-2.376 1.194-3.683-.032-1.272-.402-2.635-1.384-3.485-.797-.752-1.987-.991-3.022-.716h-.001zm12.873-.927c1.391-.343 2.967-.29 4.213.492.856.522 1.371 1.524 1.371 2.532.021 1.881-.008 3.763.011 5.644.002.628.129 1.25.269 1.86-.425.004-.846.004-1.269-.001a14.26 14.26 0 01-.223-1.708c-.853 1.072-2.123 1.85-3.496 1.903-1.02.053-2.157-.084-2.929-.837-.765-.724-.999-1.896-.768-2.908.281-1.029 1.202-1.704 2.142-2.05 1.621-.617 3.375-.319 5.062-.404-.026-.952.181-2.058-.499-2.836-.791-.916-2.12-1.004-3.226-.826-.996.143-1.936.898-2.033 1.97-.372 0-.744.004-1.116.01-.077-1.466 1.233-2.494 2.486-2.842l.005.001zm-1.363 6.716c-.561.74-.391 1.907.328 2.48.743.635 1.789.557 2.688.426 1.143-.273 2.316-1.003 2.716-2.192.053-.673 0-1.349.013-2.024-1.002.003-2.002-.023-3.001.01-1.027.049-2.102.445-2.744 1.3zm8.16-6.662c.406.011.811.018 1.217.024 1.23 3.057 2.508 6.096 3.737 9.152 1.317-3.025 2.478-6.12 3.761-9.163.407.006.815.007 1.225.009-1.684 4.115-3.432 8.202-5.124 12.314-.317.785-.688 1.626-1.442 2.068-.746.483-1.67.367-2.5.252.064-.349.127-.693.193-1.039.674.205 1.541.286 2.023-.358.581-.8.861-1.782 1.275-2.678-1.47-3.521-2.946-7.039-4.367-10.58h.002zm-46.712 10.73c-.17-.022-.277-.022-.49-.022-.192 0-1.344.045-2.241.352-.468.172-1.832.692-1.832 2.243 0 1.549 1.47 2.659 3.753 2.659 2.045 0 3.132-1.002 3.132-2.354 0-1.113-.701-1.701-2.323-2.879zm1.515-9.68c.489.416 1.511 1.287 1.511 2.943 0 1.613-.896 2.378-1.792 3.097-.276.28-.595.588-.595 1.067 0 .48.319.74.553.937l.769.608c.937.809 1.789 1.55 1.789 3.055 0 2.048-1.939 4.119-5.607 4.119-3.091 0-4.583-1.504-4.583-3.116 0-.786.382-1.898 1.641-2.66 1.321-.83 3.114-.937 4.072-1.004-.298-.394-.64-.807-.64-1.481 0-.37.106-.59.213-.852a7.051 7.051 0 01-.68.044c-2.261 0-3.54-1.722-3.54-3.422 0-1.001.448-2.114 1.364-2.919 1.215-1.025 2.665-1.198 3.817-1.198h4.392l-1.367.784H99.65v-.001zm-10.763 7.57c.51-.7.64-1.567.64-2.417 0-1.917-.896-5.573-3.535-5.573-.703 0-1.405.283-1.916.742-.831.761-.98 1.719-.98 2.655 0 2.155 1.041 5.703 3.619 5.703.829 0 1.682-.415 2.17-1.11h.002zm-2.66 1.762c-3.386 0-5.194-2.7-5.194-5.139 0-2.85 2.277-5.287 5.514-5.287 3.127 0 5.086 2.503 5.086 5.137 0 2.567-1.937 5.29-5.408 5.29h.001zm-8.877-1.763c.512-.699.64-1.566.64-2.416 0-1.917-.893-5.573-3.533-5.573-.701 0-1.407.283-1.918.742-.83.761-.978 1.719-.978 2.655 0 2.155 1.042 5.703 3.62 5.703.828 0 1.681-.415 2.169-1.11zm-2.66 1.763c-3.386 0-5.195-2.7-5.195-5.139 0-2.85 2.279-5.287 5.514-5.287 3.13 0 5.088 2.503 5.088 5.137 0 2.567-1.936 5.29-5.406 5.29zm-6.82-.34l-3.06.721c-1.244.197-2.355.371-3.532.371-5.908 0-8.153-4.44-8.153-7.922 0-4.244 3.188-8.183 8.646-8.183a12.1 12.1 0 013.272.458c1.608.46 2.356 1.03 2.826 1.358l-1.777 1.728-.748.176.535-.877c-.728-.72-2.055-2.056-4.58-2.056-3.382 0-5.928 2.627-5.928 6.456 0 4.111 2.91 7.986 7.576 7.986 1.37 0 2.075-.284 2.72-.547v-3.522l-3.232.174 1.71-.94h4.537l-.556.546c-.151.131-.17.177-.215.352-.022.197-.043.83-.043 1.049v2.671h.001zm38.545-.634c-.707-.063-.856-.196-.856-1.049V22.737l.011-.14c.085-.768.3-.895.963-1.292h-3.06l-1.605.789h1.637v.01l-.003-.007v13.507c0 .437-.085.503-.578 1.158h3.789l.792-.48c-.361-.044-.726-.066-1.089-.11l-.001-.002zm6.71-6.274c.404-.152.617-.28.617-.585 0-.869-.957-1.871-2.104-1.871-.85 0-2.444.675-2.444 3.022 0 .37.043.76.064 1.15l3.867-1.717v.001zm1.998 6.477c-.232.13-.465.283-.699.392-.701.325-1.426.411-2.061.411-.68 0-1.743-.043-2.827-.847-1.508-1.086-2.167-2.955-2.167-4.585 0-3.366 2.677-5.019 4.866-5.019.765 0 1.551.197 2.189.61 1.062.715 1.339 1.65 1.487 2.151l-4.993 2.065-1.639.128c.531 2.762 2.359 4.367 4.38 4.367 1.084 0 1.87-.389 2.592-.758l-1.126 1.086-.002-.001zM54.158 8.236c.48-.32 1.087-.543 1.86-.543 1.223 0 2.069.65 2.069 1.762 0 .886-.638 1.57-1.453 1.763v.023c.982.107 1.714.767 1.725 1.806 0 1.495-1.275 2.094-2.56 2.094-.638 0-1.297-.139-1.839-.469l.24-.727c.388.223 1.004.437 1.589.437 1.035 0 1.61-.576 1.61-1.367 0-1.08-1.013-1.39-1.913-1.39h-.417v-.706h.407c.932 0 1.663-.585 1.663-1.324 0-.737-.512-1.143-1.264-1.143-.544 0-1.087.224-1.474.47l-.24-.685h-.003zm6.811 4.521l-.733 2.265h-.939l2.401-7.201h1.088l2.405 7.2h-.972l-.753-2.264H60.97zm2.32-.726l-.701-2.073c-.157-.47-.26-.897-.365-1.314h-.021c-.106.416-.21.865-.355 1.303l-.69 2.084h2.131zm6.937-4.212v.78h-2.832v6.42h-.92v-7.2h3.752zm1.043.087a10.329 10.329 0 011.745-.138c.898 0 1.555.213 1.974.598.376.341.616.865.616 1.506 0 .652-.188 1.166-.544 1.54-.49.522-1.264.79-2.152.79-.272 0-.523-.01-.734-.064v2.885h-.907V7.907l.002-.001zm.909 3.473c.198.053.45.074.752.074 1.097 0 1.767-.556 1.767-1.528 0-.962-.67-1.421-1.662-1.421-.398 0-.701.032-.857.074v2.802-.001zm5.044-3.56l1.4 3.089c.178.426.346.843.502 1.261h.032c.124-.362.26-.78.428-1.293l1.109-3.055h.961l-1.482 3.717c-.376.962-.816 2.064-1.317 2.725-.45.588-.962.888-1.589.888-.24 0-.397-.022-.512-.064l.085-.759c.082.022.187.032.343.032.723 0 1.15-.716 1.381-1.228.073-.16.053-.266-.032-.439L76.19 7.82h1.034zm5.286.417c.48-.32 1.086-.543 1.86-.543 1.224 0 2.068.65 2.068 1.762 0 .886-.637 1.57-1.452 1.763v.023c.983.107 1.714.767 1.726 1.806 0 1.495-1.275 2.094-2.561 2.094-.638 0-1.296-.139-1.84-.469l.24-.727c.386.223 1.003.437 1.588.437 1.034 0 1.608-.576 1.608-1.367 0-1.08-1.013-1.39-1.913-1.39h-.417v-.706h.408c.93 0 1.66-.585 1.66-1.324 0-.737-.51-1.143-1.264-1.143-.542 0-1.087.224-1.473.47l-.239-.685h.001zm6.53-.417v3.035a46.6 46.6 0 01-.083 3.045l.032.01c.344-.748.782-1.527 1.294-2.382L92.56 7.82h.908v7.2h-.856v-3.064c0-1.165.01-2.02.085-2.927l-.032-.01c-.346.787-.827 1.623-1.307 2.414l-2.205 3.59h-.973V7.819h.857zm7.614.792H94.51V7.82h5.215v.792h-2.153v6.409h-.919v-6.41zm7.752 3.035h-2.726v2.596h3.052v.78h-3.974V7.82h3.814v.78h-2.893v2.275h2.726v.77h.001zm5.628-3.827v3.014h3.408V7.82h.919v7.2h-.919v-3.374h-3.406v3.377h-.92V7.819h.921-.003zm7.303 4.938l-.733 2.265h-.939l2.403-7.201h1.086l2.404 7.2h-.972l-.752-2.264h-2.497zm2.321-.726l-.702-2.073c-.156-.47-.261-.897-.365-1.314h-.021c-.105.416-.209.865-.355 1.303l-.691 2.084h2.134z" fill="#fff"/><defs><linearGradient id="paint0_linear" x1="33.403" y1="29.596" x2="43.216" y2="24.442" gradientUnits="userSpaceOnUse"><stop stop-color="#FFA28B"/><stop offset="1" stop-color="#FFC473"/></linearGradient><linearGradient id="paint1_linear" x1="17.856" y1="38.394" x2="34.268" y2="28.572" gradientUnits="userSpaceOnUse"><stop stop-color="#7D17FF"/><stop offset="1" stop-color="#FF2E64"/></linearGradient><linearGradient id="paint2_linear" x1="15.686" y1="7.239" x2="42.386" y2="32.663" gradientUnits="userSpaceOnUse"><stop stop-color="#0053B9"/><stop offset="1" stop-color="#2EFFBC"/></linearGradient><linearGradient id="paint3_linear" x1="16.963" y1="13.711" x2="30.542" y2="30.618" gradientUnits="userSpaceOnUse"><stop stop-color="#00D4AB"/><stop offset="1" stop-color="#C8FFA2"/></linearGradient></defs></svg>