<svg width="82" height="63" fill="none" xmlns="http://www.w3.org/2000/svg"><g clip-path="url(#clip0)"><path d="M70.594 46.777C83.537 31.566 85.799 12.395 75.647 3.96 65.493-4.478 46.77 1.014 33.828 16.225c-12.943 15.211-15.205 34.382-5.053 42.819 10.153 8.436 28.876 2.945 41.819-12.267z" fill="#FFD3CA"/><path d="M53.224 59.05c10.153-8.437 7.89-27.607-5.053-42.819C35.228 1.021 16.505-4.472 6.353 3.965c-10.153 8.437-7.89 27.607 5.053 42.819C24.349 61.994 43.07 67.487 53.224 59.05z" fill="#FFD3CA"/><path d="M34.34 43.864h-6.361V30.057h6.36m6.354-11.828L34.34 30.056V43.87h14.94a3.764 3.764 0 002.364-.83 3.686 3.686 0 001.3-2.12l2.335-11.164a1.864 1.864 0 00-.417-1.54 1.906 1.906 0 00-1.463-.674h-8.89V22a3.73 3.73 0 00-.288-1.444 3.76 3.76 0 00-.828-1.225 3.849 3.849 0 00-2.7-1.102v0z" stroke="#004B46" stroke-width="3" stroke-miterlimit="10"/></g><defs><clipPath id="clip0"><path fill="#fff" d="M0 0h82v63H0z"/></clipPath></defs></svg>